# xmcd
#
# Track frame offsets:
#	150
#	16660
#	34935
#	55067
#	80430
#	100752
#	124560
#	145357
#	163115
#	189262
#	215715
#	236610
#
# Disc length: 3526 seconds
# Revision: 5
# Processed by: cddbd v1.5.2PL0 Copyright (c) Steve Scherf et al.
# Submitted via: dBpowerAMP V12.0
#
DISCID=9a0dc40c
DTITLE=Lonnie Brooks - Satisfaction Guaranteed
DYEAR=1991
DGENRE=Blues
TTITLE0=Temporary Insanity
TTITLE1=A Man's Got to to What a Man's Got to Do
TTITLE2=Feast or Famine
TTITLE3=It's Lying Time Again
TTITLE4=A Little Rock and Roll and Some Country Blues
TTITLE5=Wife for Tonight
TTITLE6=Family Curse
TTITLE7=Horoscope
TTITLE8=Like Father, Like Son
TTITLE9=Holding on to the Memories
TTITLE10=Accident
TTITLE11=If the Price Is Right
EXTD=
EXTT0=
EXTT1=
EXTT2=
EXTT3=
EXTT4=
EXTT5=
EXTT6=
EXTT7=
EXTT8=
EXTT9=
EXTT10=
EXTT11=
PLAYORDER=
